# xmcd
#
# Track frame offsets:
#  150
#  13195
#  25315
#  39302
#  50578
#  65668
#  79429
#  94255
#  108015
#  116858
#  129590
#  140395
#  150648
#  164023
#  173476
#  183715
#  196469
#  209787
#  222099
#  235060
#
# Disc length: 3284 seconds
#
# Revision: 0
# Processed by: cddbd v1.5.1PL0 Copyright (c) Steve Scherf et al.
# Submitted via: Collectorz.com Music Collector 6.9
#
DISCID=270cd214
DTITLE=Doris Day - This is gold Doris Day CD 3
DYEAR=2005
DGENRE=Easy listening
TTITLE0=You're getting to be a habit with me
TTITLE1=I want to be happy
TTITLE2=Here in my arms
TTITLE3=On moonlight bay
TTITLE4=I only have eyes for you
TTITLE5=That old feeling
TTITLE6=Too marvellous for words
TTITLE7=I love the way you say goodnight
TTITLE8=When the red red robin comes bob-bob-bobbin'along
TTITLE9=Anyone can fall in love
TTITLE10=Choochoo train (Ch-Ch-Foo)
TTITLE11=A purple cow
TTITLE12=Kiss me again stranger
TTITLE13=Doris Day and Johnny Ray - Candy Lips
TTITLE14=Mister Tap Toe
TTITLE15=Doris Day and Johnny Ray - Ma says, Pa says
TTITLE16=When I fall in love
TTITLE17=Doris Day with Mellomen - Bewitched, bothered and bewildered
TTITLE18=Cuddle up a little closer
TTITLE19=Makin'whoopee
EXTD=
EXTT0=
EXTT1=
EXTT2=
EXTT3=
EXTT4=
EXTT5=
EXTT6=
EXTT7=
EXTT8=
EXTT9=
EXTT10=
EXTT11=
EXTT12=
EXTT13=
EXTT14=
EXTT15=
EXTT16=
EXTT17=
EXTT18=
EXTT19=
PLAYORDER=
